IDResults
version=1
nRows=22
nColumns=18
inDegrees=yes
endheader
time	ground_thorax_rot_x	ground_thorax_rot_y	ground_thorax_rot_z	ground_thorax_tx	ground_thorax_ty	ground_thorax_tz	clav_prot	clav_elev	scapula_abduction	scapula_elevation	scapula_upward_rot	scapula_winging	plane_elv	shoulder_elv	axial_rot	elbow_flexion	pro_sup
      1.02000000	      0.51728761	     -7.31007762	    -10.32797784	     -0.03782508	      0.01310398	      0.01302358	    -20.35695708	    -16.39148721	    -16.52478537	    -13.57608558	     16.49685062	     19.80399221	    -26.00000000	     33.38182647	     38.71551930	     26.31811167	   -170.87918914
      1.04000000	      0.51728761	     -7.42069333	    -10.08265858	     -0.03894699	      0.01399788	      0.01280420	    -20.53357434	    -16.11611129	    -16.27873948	    -13.58990617	     17.38821123	     19.48935095	    -26.00000000	     34.30254887	     38.12131505	     26.49376510	   -170.69499057
      1.06000000	      0.51728761	     -7.54484722	     -9.81256498	     -0.04009112	      0.01495271	      0.01259440	    -20.68293209	    -15.82987726	    -15.96596828	    -13.59674653	     18.29885461	     19.15967387	    -26.00000000	     35.27650118	     37.32043765	     26.64553333	   -170.40265811
      1.08000000	      0.51728761	     -7.64615002	     -9.53873921	     -0.04122751	      0.01590691	      0.01238061	    -20.87712560	    -15.51489853	    -15.65469709	    -13.60677896	     19.31644706	     18.79895043	    -26.00000000	     36.19517542	     36.45933968	     26.75769218	   -170.17912815
      1.10000000	      0.51728761	     -7.74218567	     -9.24843666	     -0.04231728	      0.01688529	      0.01221082	    -21.10707091	    -15.18894790	    -15.34562857	    -13.62408260	     20.40784187	     18.42238022	    -26.00000000	     37.09365898	     35.59364661	     26.87361353	   -169.99875616
      1.12000000	      0.51728761	     -7.86334297	     -8.91582744	     -0.04349312	      0.01793672	      0.01203346	    -21.28240148	    -14.83807588	    -14.92127295	    -13.62132228	     21.51833991	     18.02012295	    -26.00000000	     38.01823459	     34.42994199	     26.90188942	   -169.74371943
      1.14000000	      0.51728761	     -7.97221567	     -8.56473581	     -0.04463788	      0.01901713	      0.01185134	    -21.45498971	    -14.47484480	    -14.46760418	    -13.61061892	     22.65105012	     17.60725825	    -26.00000000	     38.96148057	     33.20561809	     26.91466034	   -169.40302196
      1.16000000	      0.51728761	     -8.07474481	     -8.20486308	     -0.04575206	      0.02011154	      0.01169250	    -21.65279578	    -14.08513877	    -13.98159109	    -13.59796122	     23.87817457	     17.16581215	    -26.00000000	     39.84115767	     31.96182830	     26.86218457	   -169.08209332
      1.18000000	      0.51728761	     -8.19597593	     -7.82627724	     -0.04687526	      0.02120274	      0.01154668	    -21.80349235	    -13.65575194	    -13.40396291	    -13.55151232	     25.11308617	     16.69710253	    -26.00000000	     40.75043472	     30.56897639	     26.83692270	   -168.67306974
      1.20000000	      0.51728761	     -8.30342689	     -7.42705915	     -0.04800956	      0.02235730	      0.01141750	    -21.98108984	    -13.21612786	    -12.79871313	    -13.51047817	     26.42945316	     16.21363622	    -26.00000000	     41.59458591	     29.22766309	     26.68668227	   -168.30461112
      1.22000000	      0.51728761	     -8.41938879	     -7.01285059	     -0.04912436	      0.02351103	      0.01131126	    -22.12569480	    -12.73177065	    -12.12236915	    -13.43302023	     27.75892347	     15.70380480	    -26.00000000	     42.44192605	     27.83978432	     26.54933271	   -167.90930379
      1.24000000	      0.51728761	     -8.55705065	     -6.57747624	     -0.05024423	      0.02471151	      0.01123253	    -22.21595089	    -12.25682395	    -11.37284179	    -13.34433596	     29.03786586	     15.20796726	    -26.00000000	     43.35750358	     26.29730140	     26.41550349	   -167.24462115
      1.26000000	      0.51728761	     -8.67570009	     -6.15682062	     -0.05131387	      0.02591150	      0.01120639	    -22.40740749	    -11.73697824	    -10.62507062	    -13.26204192	     30.53047557	     14.66579070	    -26.00000000	     44.06824338	     25.21402530	     26.13747801	   -167.04065076
      1.28000000	      0.51728761	     -8.84690257	     -5.71803160	     -0.05241093	      0.02710933	      0.01121630	    -22.45272318	    -11.20991618	     -9.75539562	    -13.12775891	     31.83959883	     14.14600084	    -26.00000000	     44.95103028	     23.67144617	     26.00297650	   -166.35514330
      1.30000000	      0.51728761	     -9.01865498	     -5.26569053	     -0.05349940	      0.02827969	      0.01125802	    -22.55508420	    -10.62083613	     -8.84736285	    -12.97535900	     33.31702873	     13.57859775	    -26.00000000	     45.67457477	     22.65845496	     25.73078942	   -166.21811481
      1.32000000	      0.51728761	     -9.22118142	     -4.82177542	     -0.05455852	      0.02946365	      0.01134001	    -22.60091476	    -10.04744902	     -7.87376556	    -12.81223780	     34.72781589	     13.03629714	    -26.00000000	     46.46216556	     21.56265499	     25.49129228	   -166.03483034
      1.34000000	      0.51728761	     -9.43383579	     -4.38129421	     -0.05558095	      0.03065343	      0.01147974	    -22.65688182	     -9.47229450	     -6.88739531	    -12.64338679	     36.15636972	     12.50274726	    -26.00000000	     47.20703845	     20.64453560	     25.23849313	   -165.90128810
      1.36000000	      0.51728761	     -9.66388766	     -3.94356002	     -0.05660195	      0.03183609	      0.01164422	    -22.67078296	     -8.89463770	     -5.85825528	    -12.45471418	     37.53072208	     11.98539134	    -26.00000000	     47.97531898	     19.77131094	     24.99495123	   -165.77680007
      1.38000000	      0.51728761	     -9.91278813	     -3.48512931	     -0.05768430	      0.03303682	      0.01180226	    -22.61908445	     -8.33594141	     -4.77605290	    -12.25483394	     38.81018798	     11.49861873	    -26.00000000	     48.80481836	     18.84810557	     24.74390299	   -165.60407179
      1.40000000	      0.51728761	    -10.16611332	     -3.06304437	     -0.05863531	      0.03419682	      0.01204279	    -22.64136187	     -7.76017132	     -3.74874384	    -12.05026482	     40.16708352	     11.01168483	    -26.00000000	     49.49434418	     18.27153633	     24.52338289	   -165.55366982
      1.42000000	      0.51728761	    -10.42632654	     -2.62544404	     -0.05960037	      0.03536425	      0.01227425	    -22.61726771	     -7.21651632	     -2.70958687	    -11.84398769	     41.42076698	     10.56438372	    -26.00000000	     50.23903593	     17.71406169	     24.30893853	   -165.51610333
      1.44000000	      0.51728761	    -10.65694856	     -2.17905574	     -0.06060622	      0.03657596	      0.01248476	    -22.60938970	     -6.68510617	     -1.70393929	    -11.63717198	     42.65269585	     10.14030002	    -26.00000000	     50.91820760	     17.25128501	     24.02375643	   -165.50321250
